<?xml version="1.0" encoding="utf-8"?>
<!-- Generator: Moho 12.5 build 22438 -->
<!DOCTYPE svg PUBLIC "-//W3C//DTD SVG 1.1//EN" "http://www.w3.org/Graphics/SVG/1.1/DTD/svg11.dtd">
<svg version="1.1" id="Frame_0" xmlns="http://www.w3.org/2000/svg" xmlns:xlink="http://www.w3.org/1999/xlink" width="1280px" height="720px">
<g id="Layer_4">
<path fill="#512d13" fill-rule="evenodd" stroke="none" d="M 632.302 192.711 C 632.302 192.711 632.302 192.711 632.302 192.711 C 634.112 178.445 637.856 159.530 638.335 145.157 C 638.719 133.648 637.823 118.232 636.206 106.830 C 634.918 97.752 631.486 85.963 629.463 77.020 C 629.463 77.020 629.463 77.020 629.463 77.020 C 617.752 77.659 602.137 78.511 590.426 79.150 C 590.426 79.150 590.426 79.150 590.426 79.150 C 592.555 82.450 595.656 86.696 597.524 90.151 C 600.176 95.058 602.862 102.023 604.976 107.185 C 608.387 115.510 612.937 126.634 615.623 135.221 C 617.982 142.762 620.490 153.018 622.010 160.772 C 623.294 167.317 624.889 176.112 625.204 182.775 C 625.346 185.754 624.849 192.710 624.849 192.711 C 627.085 192.711 632.301 192.711 632.302 192.711 C 632.302 192.711 632.302 192.711 632.302 192.711 Z"/>
<path fill="none" stroke="#512d13" stroke-width="1" stroke-linecap="round" stroke-linejoin="round" d="M 624.849 192.711 C 624.849 192.711 624.849 192.711 624.849 192.711 C 624.849 192.710 625.346 185.754 625.204 182.775 C 624.889 176.112 623.294 167.317 622.010 160.772 C 620.490 153.018 617.982 142.762 615.623 135.221 C 612.937 126.634 608.387 115.510 604.976 107.185 C 602.862 102.023 600.176 95.058 597.524 90.151 C 595.656 86.696 592.555 82.450 590.426 79.150 C 602.137 78.511 617.752 77.659 629.463 77.020 C 631.486 85.963 634.918 97.752 636.206 106.830 C 637.823 118.232 638.719 133.648 638.335 145.157 C 637.856 159.530 634.112 178.445 632.302 192.711 C 632.302 192.711 632.302 192.711 632.302 192.711 C 632.301 192.711 627.085 192.711 624.849 192.711 M 629.463 77.020 C 629.463 77.020 629.463 77.020 629.463 77.020 M 590.426 79.150 C 590.426 79.150 590.426 79.150 590.426 79.150 M 632.302 192.711 C 632.302 192.711 632.302 192.711 632.302 192.711 "/>
<path fill="#331c0e" fill-rule="evenodd" stroke="#331c0e" stroke-width="1" stroke-linecap="round" stroke-linejoin="round" d="M 622.210 163.513 C 622.210 163.513 622.210 163.513 622.210 163.513 C 623.482 156.152 625.963 146.431 626.450 138.978 C 627.119 128.756 626.205 115.022 624.834 104.871 C 623.713 96.570 620.614 85.786 618.805 77.607 C 618.805 77.607 618.805 77.607 618.805 77.607 C 610.239 78.054 598.817 78.650 590.251 79.097 C 590.251 79.097 590.251 79.097 590.251 79.097 C 592.722 83.144 596.301 88.378 598.486 92.586 C 602.409 100.143 606.567 110.745 609.570 118.712 C 612.308 125.977 615.661 135.788 617.719 143.273 C 619.367 149.270 622.209 163.511 622.210 163.513 C 622.210 163.513 622.210 163.513 622.210 163.513 Z"/>
<path fill="#3e6303" fill-rule="evenodd" stroke="#3e6303" stroke-width="1" stroke-linecap="round" stroke-linejoin="round" d="M 834.136 53.215 C 834.136 53.215 834.136 53.215 834.136 53.215 C 826.638 51.701 816.729 49.142 809.142 48.168 C 799.689 46.954 786.933 45.934 777.418 46.486 C 768.366 47.011 756.387 49.226 747.617 51.533 C 738.795 53.853 727.273 57.984 719.018 61.867 C 712.293 65.030 703.740 70.136 697.628 74.364 C 690.591 79.233 681.549 86.317 675.518 92.389 C 668.685 99.266 660.761 109.592 655.330 117.624 C 651.007 124.017 646.414 133.269 642.593 139.974 C 642.593 139.974 642.593 139.974 642.593 139.974 C 648.649 141.056 656.675 142.822 662.781 143.579 C 670.167 144.495 680.092 145.342 687.534 145.261 C 695.498 145.175 706.126 144.229 713.971 142.858 C 722.636 141.344 734.100 138.512 742.330 135.408 C 752.769 131.471 766.077 124.565 775.495 118.585 C 784.127 113.103 795.097 104.820 802.413 97.676 C 808.753 91.484 816.061 82.095 821.158 74.845 C 825.510 68.654 834.135 53.217 834.136 53.215 C 834.136 53.215 834.136 53.215 834.136 53.215 Z"/>
<path fill="#4a7a02" fill-rule="evenodd" stroke="#4a7a02" stroke-width="1" stroke-linecap="round" stroke-linejoin="round" d="M 816.691 59.936 C 816.691 59.936 816.691 59.936 816.691 59.936 C 812.996 58.903 808.145 57.208 804.376 56.495 C 795.749 54.863 783.996 53.683 775.220 53.959 C 764.614 54.293 750.531 56.691 740.269 59.392 C 730.277 62.022 717.153 66.666 708.034 71.526 C 699.028 76.326 687.795 84.309 680.327 91.265 C 674.117 97.049 667.090 106.048 662.218 112.996 C 657.520 119.694 652.583 129.476 648.455 136.538 C 648.455 136.538 648.455 136.538 648.455 136.538 C 655.572 137.733 664.985 139.939 672.178 140.522 C 680.301 141.181 691.223 141.042 699.342 140.341 C 707.849 139.607 719.230 138.077 727.411 135.633 C 735.313 133.272 745.314 128.479 752.583 124.586 C 760.036 120.595 769.662 114.601 776.307 109.374 C 783.223 103.934 791.742 95.750 797.495 89.092 C 802.128 83.730 807.516 75.913 811.258 69.896 C 813.055 67.005 816.690 59.937 816.691 59.936 C 816.691 59.936 816.691 59.936 816.691 59.936 Z"/>
<path fill="#aa0000" fill-rule="evenodd" stroke="none" d="M 839.338 223.822 C 847.216 232.995 855.122 247.207 861.887 257.229 C 861.888 257.232 871.452 276.798 874.415 285.625 C 879.472 300.693 884.720 321.470 886.079 337.306 C 887.455 353.328 885.505 374.905 883.348 390.841 C 881.118 407.311 876.367 429.085 871.330 444.923 C 866.320 460.673 858.116 481.317 850.025 495.728 C 843.011 508.220 831.074 523.294 822.164 534.514 C 813.758 545.100 802.356 559.182 792.491 568.424 C 784.342 576.060 772.811 585.791 763.025 591.171 C 753.910 596.181 740.692 601.211 730.456 603.061 C 710.919 606.591 684.121 602.885 664.286 602.027 C 650.774 601.442 632.835 598.876 619.310 598.925 C 606.868 598.970 590.388 601.600 577.954 602.027 C 572.839 602.202 565.996 602.433 560.894 602.027 C 555.099 601.566 547.361 600.503 541.766 598.925 C 535.141 597.056 526.438 593.737 520.571 590.137 C 502.610 579.114 482.614 558.556 468.875 542.577 C 457.742 529.628 445.158 510.439 436.824 495.534 C 428.116 479.962 418.175 458.176 412.527 441.253 C 407.238 425.408 402.221 403.544 400.120 386.972 C 397.833 368.941 396.937 344.511 398.552 326.407 C 399.763 312.819 403.425 294.846 407.470 281.818 C 412.410 265.906 420.648 244.941 429.552 230.859 C 430.423 229.480 431.910 227.870 432.949 226.612 C 439.163 219.091 446.965 208.546 454.182 201.982 C 462.027 194.847 473.586 186.362 483.059 181.598 C 489.345 178.437 498.457 175.831 505.257 174.021 C 510.455 172.638 517.480 170.879 522.849 170.549 C 529.175 170.161 537.638 171.276 543.913 172.169 C 553.406 173.521 565.782 176.895 575.162 178.882 C 582.797 180.500 592.946 182.810 600.624 184.206 C 603.668 184.760 607.725 185.576 610.809 185.827 C 614.824 186.152 620.207 185.827 624.235 185.827 C 631.640 184.698 641.583 183.580 648.919 182.064 C 658.947 179.990 671.896 175.447 681.908 173.294 C 692.459 171.026 706.616 167.767 717.403 167.448 C 728.231 167.128 742.726 168.925 753.315 171.206 C 762.726 173.234 775.053 177.205 783.799 181.228 C 792.582 185.269 803.628 192.127 811.359 197.932 C 820.504 204.799 831.887 215.147 839.338 223.822 M 624.235 185.827 C 624.235 185.827 624.235 185.827 624.235 185.827 Z"/>
<path fill="none" stroke="#aa0000" stroke-width="1" stroke-linecap="round" stroke-linejoin="round" d="M 861.887 257.229 C 861.887 257.229 861.887 257.229 861.887 257.229 C 855.122 247.207 847.216 232.995 839.338 223.822 C 831.887 215.147 820.504 204.799 811.359 197.932 C 803.628 192.127 792.582 185.269 783.799 181.228 C 775.053 177.205 762.726 173.234 753.315 171.206 C 742.726 168.925 728.231 167.128 717.403 167.448 C 706.616 167.767 692.459 171.026 681.908 173.294 C 671.896 175.447 658.947 179.990 648.919 182.064 C 641.583 183.580 631.640 184.698 624.235 185.827 C 624.235 185.827 624.235 185.827 624.235 185.827 C 620.207 185.827 614.824 186.152 610.809 185.827 C 607.725 185.576 603.668 184.760 600.624 184.206 C 592.946 182.810 582.797 180.500 575.162 178.882 C 565.782 176.895 553.406 173.521 543.913 172.169 C 537.638 171.276 529.175 170.161 522.849 170.549 C 517.480 170.879 510.455 172.638 505.257 174.021 C 498.457 175.831 489.345 178.437 483.059 181.598 C 473.586 186.362 462.027 194.847 454.182 201.982 C 446.965 208.546 439.163 219.091 432.949 226.612 C 431.910 227.870 430.423 229.480 429.552 230.859 C 420.648 244.941 412.410 265.906 407.470 281.818 C 403.425 294.846 399.763 312.819 398.552 326.407 C 396.937 344.511 397.833 368.941 400.120 386.972 C 402.221 403.544 407.238 425.408 412.527 441.253 C 418.175 458.176 428.116 479.962 436.824 495.534 C 445.158 510.439 457.742 529.628 468.875 542.577 C 482.614 558.556 502.610 579.114 520.571 590.137 C 526.438 593.737 535.141 597.056 541.766 598.925 C 547.361 600.503 555.099 601.566 560.894 602.027 C 565.996 602.433 572.839 602.202 577.954 602.027 C 590.388 601.600 606.868 598.970 619.310 598.925 C 632.835 598.876 650.774 601.442 664.286 602.027 C 684.121 602.885 710.919 606.591 730.456 603.061 C 740.692 601.211 753.910 596.181 763.025 591.171 C 772.811 585.791 784.342 576.060 792.491 568.424 C 802.356 559.182 813.758 545.100 822.164 534.514 C 831.074 523.294 843.011 508.220 850.025 495.728 C 858.116 481.317 866.320 460.673 871.330 444.923 C 876.367 429.085 881.118 407.311 883.348 390.841 C 885.505 374.905 887.455 353.328 886.079 337.306 C 884.720 321.470 879.472 300.693 874.415 285.625 C 871.452 276.798 861.888 257.232 861.887 257.229 "/>
<path fill="#d40001" fill-rule="evenodd" stroke="#d40001" stroke-width="1" stroke-linecap="round" stroke-linejoin="round" d="M 659.534 206.497 C 659.534 206.497 659.534 206.497 659.534 206.497 C 653.801 206.452 646.159 206.391 640.426 206.346 C 640.426 206.346 640.426 206.346 640.426 206.346 C 636.977 206.066 632.338 206.003 628.928 205.413 C 624.069 204.574 617.861 202.263 613.078 201.063 C 603.996 198.784 591.936 195.195 582.623 194.225 C 577.615 193.704 570.839 193.619 565.841 194.225 C 560.117 194.920 552.599 196.876 547.195 198.887 C 539.926 201.592 530.451 206.109 524.197 210.696 C 517.553 215.571 510.007 223.784 504.930 230.275 C 499.876 236.736 494.365 246.278 490.634 253.583 C 485.957 262.742 480.855 275.532 477.582 285.282 C 474.826 293.490 471.599 304.637 470.177 313.178 C 467.754 327.724 466.711 347.505 467.221 362.241 C 467.864 380.840 470.955 405.671 475.497 423.718 C 479.701 440.424 487.862 462.115 495.595 477.509 C 503.653 493.553 517.285 513.428 528.106 527.755 C 536.894 539.389 548.039 556.104 560.027 564.404 C 566.633 568.978 577.249 571.859 584.853 574.453 C 598.249 579.022 616.448 584.317 630.370 586.867 C 647.363 589.978 670.438 592.610 687.708 592.187 C 704.180 591.783 726.304 589.218 742.091 584.502 C 754.635 580.755 771.174 573.966 781.696 566.177 C 796.245 555.409 810.927 535.494 821.301 520.661 C 830.945 506.871 841.625 486.961 848.493 471.599 C 854.398 458.388 860.874 440.103 864.453 426.082 C 869.234 407.355 873.886 381.769 874.554 362.453 C 874.987 349.951 873.780 333.143 871.301 320.882 C 868.467 306.865 862.441 288.523 856.118 275.696 C 851.172 265.660 842.717 253.170 835.514 244.608 C 827.636 235.245 815.712 223.846 805.813 216.652 C 798.091 211.040 786.753 205.006 778.008 201.178 C 771.074 198.143 761.505 194.625 754.071 193.199 C 746.579 191.762 736.309 191.500 728.684 191.749 C 722.551 191.949 714.412 193.071 708.374 194.166 C 701.243 195.460 691.953 198.211 684.921 199.969 C 678.316 201.621 669.489 203.746 662.919 205.530 C 661.899 205.807 659.534 206.497 659.534 206.497 C 659.534 206.497 659.534 206.497 659.534 206.497 Z"/>
<path fill="#fefefe" fill-rule="evenodd" stroke="none" d="M 855.011 397.548 C 854.334 404.827 851.565 421.670 851.565 421.672 C 854.667 415.676 859.578 408.022 861.904 401.683 C 865.404 392.145 868.003 378.695 869.141 368.598 C 870.173 359.454 870.535 347.068 869.486 337.926 C 868.089 325.743 864.081 309.663 859.492 298.292 C 854.899 286.912 846.528 272.608 839.158 262.795 C 832.527 253.966 822.192 243.261 813.655 236.258 C 808.401 231.947 800.386 227.573 794.700 223.851 C 798.624 228.299 804.056 234.062 807.781 238.679 C 809.962 241.383 812.724 245.110 814.689 247.976 C 820.124 255.903 827.096 266.699 831.576 275.202 C 836.000 283.598 841.158 295.206 844.328 304.151 C 847.477 313.041 850.747 325.232 852.599 334.479 C 854.320 343.068 855.985 354.679 856.390 363.429 C 856.864 373.662 855.961 387.348 855.011 397.548 M 794.700 223.851 C 794.700 223.851 794.700 223.851 794.700 223.851 Z"/>
<path fill="none" stroke="#fefefe" stroke-width="1" stroke-linecap="round" stroke-linejoin="round" d="M 855.011 397.548 C 854.334 404.827 851.565 421.670 851.565 421.672 C 854.667 415.676 859.578 408.022 861.904 401.683 C 865.404 392.145 868.003 378.695 869.141 368.598 C 870.173 359.454 870.535 347.068 869.486 337.926 C 868.089 325.743 864.081 309.663 859.492 298.292 C 854.899 286.912 846.528 272.608 839.158 262.795 C 832.527 253.966 822.192 243.261 813.655 236.258 C 808.401 231.947 800.386 227.573 794.700 223.851 C 798.624 228.299 804.056 234.062 807.781 238.679 C 809.962 241.383 812.724 245.110 814.689 247.976 C 820.124 255.903 827.096 266.699 831.576 275.202 C 836.000 283.598 841.158 295.206 844.328 304.151 C 847.477 313.041 850.747 325.232 852.599 334.479 C 854.320 343.068 855.985 354.679 856.390 363.429 C 856.864 373.662 855.961 387.348 855.011 397.548 M 794.700 223.851 C 794.700 223.851 794.700 223.851 794.700 223.851 M 851.565 421.672 C 851.565 421.672 851.565 421.672 851.565 421.672 "/>
</g>
</svg>
